# xmcd CD database file generated by freedbAccess_ocx
#
# Track frame offsets:
#       150
#       11837
#       26930
#       40342
#       54681
#       67612
#       78881
#       96481
#       112267
#       125221
#       143180
#       159513
#
# Disc length: 2305 seconds
#
# Revision: 0
# Processed by: cddbd v1.5.1PL2 Copyright (c) Steve Scherf et al.
# Submitted via: CDnGo 2.00
#
DISCID=ab08ff0c
DTITLE=Amar Azul - Amar Azul
DYEAR=2000
DGENRE=Unknown
TTITLE0=La Vecina
TTITLE1=Tomo Para Olvidar
TTITLE2=Quiero Confesarte
TTITLE3=El Travieso
TTITLE4=El Segundo Polvito
TTITLE5=Quiero Tu Cuerpo
TTITLE6=En Licor y Una Cerveza
TTITLE7=Explicale
TTITLE8=Yo Me Enamore
TTITLE9=Vos Sos Loca
TTITLE10=Sin Tu Amor
TTITLE11=Sueño De Amor
EXTD=
EXTT0=
EXTT1=
EXTT2=
EXTT3=
EXTT4=
EXTT5=
EXTT6=
EXTT7=
EXTT8=
EXTT9=
EXTT10=
EXTT11=
PLAYORDER=
